<svg width="139" height="39" viewBox="0 0 139 39" fill="none" xmlns="http://www.w3.org/2000/svg">
<path d="M33.5246 5.51514V10.4394L31.3681 10.8333C32.9365 12.0151 33.3286 13.7879 33.3286 15.5606V18.3182C33.3286 23.8333 29.4076 27.9697 23.9181 27.9697H16.6643C15.684 27.9697 15.684 29.5454 16.6643 29.5454H23.9181C29.4076 29.5454 33.3286 33.0909 33.3286 38.803H24.7024C24.7024 38.0151 24.3103 37.8182 23.526 37.8182H15.488C5.88148 37.8182 3.33281 30.1364 8.23408 25.2121C6.66568 23.4394 5.68542 21.0757 5.68542 18.5151V15.5606C5.68542 10.0454 10.1946 5.51514 15.684 5.51514C21.5655 5.51514 27.6431 5.51514 33.5246 5.51514ZM15.684 14.1818C14.8998 14.1818 14.3117 14.7727 14.3117 15.5606V18.5151C14.3117 19.303 14.8998 19.8939 15.684 19.8939H23.33C24.1142 19.8939 24.7024 19.303 24.7024 18.5151V15.5606C24.7024 14.7727 24.1142 14.1818 23.33 14.1818H15.684Z" fill="#F7009D"/>
<path d="M44.3075 33.2879V24.4243L53.5219 24.6212C54.3061 24.6212 54.8942 24.0303 54.8942 23.2424V15.3637C54.8942 14.5758 54.3061 13.9849 53.5219 13.9849H45.6799C44.8957 13.9849 44.3075 14.5758 44.3075 15.3637C44.3075 23.0455 44.3075 30.7273 44.3075 38.4091H35.6813C35.6813 30.7273 35.6813 23.0455 35.6813 15.3637C35.6813 9.84851 40.1904 5.31821 45.6799 5.31821H53.5219C59.0113 5.31821 63.5205 9.84851 63.5205 15.3637V23.2424C63.5205 28.7576 59.0113 33.2879 53.5219 33.2879H44.3075Z" fill="#F7009D"/>
<path d="M78.4203 26.5909C79.0085 26.5909 79.5966 26.197 79.5966 25.6061L85.086 7.28789H94.1044L88.0268 27.3788C86.6544 31.7121 83.1255 35.2576 78.2243 35.2576H75.6756C70.1862 35.2576 65.677 30.7273 65.677 25.2121V7.48486H74.3032V25.2121C74.3032 26 74.8914 26.5909 75.6756 26.5909H78.4203Z" fill="#BB74FC"/>
<path d="M96.6531 0.393967H105.475V5.90912H96.6531V0.393967ZM96.6531 35.0606C96.6531 27.9697 96.6531 14.1818 96.6531 7.09094H105.279C105.279 14.1818 105.279 27.9697 105.279 35.0606H96.6531Z" fill="#BB74FC"/>
<path d="M120.963 25.4091C120.375 25.4091 119.787 25.803 119.787 26.3939L117.042 35.2576H108.024L111.357 24.4243C111.749 23.0455 112.533 21.8636 113.905 21.0758C112.533 20.2879 111.749 19.1061 111.357 17.7273L108.22 7.28789H117.238L119.787 15.7576C119.983 16.3485 120.571 16.7424 121.159 16.7424H123.316C123.904 16.7424 124.492 16.3485 124.492 15.7576L127.041 7.28789H136.059L132.922 17.7273C132.53 19.1061 131.746 20.2879 130.374 21.0758C131.746 21.8636 132.53 23.0455 132.922 24.4243L136.255 35.2576H127.237L124.492 26.3939C124.296 25.803 123.904 25.4091 123.316 25.4091H120.963Z" fill="#BB74FC"/>
</svg>
