<svg width="34" height="33" viewBox="0 0 34 33" fill="none" xmlns="http://www.w3.org/2000/svg">
<path d="M17.0071 8.07116C12.4643 8.07116 8.79999 11.7354 8.79999 16.2783C8.79999 20.8212 12.4643 24.4854 17.0071 24.4854C21.55 24.4854 25.2143 20.8212 25.2143 16.2783C25.2143 11.7354 21.55 8.07116 17.0071 8.07116ZM17.0071 21.614C14.0714 21.614 11.6714 19.2212 11.6714 16.2783C11.6714 13.3354 14.0643 10.9426 17.0071 10.9426C19.95 10.9426 22.3428 13.3354 22.3428 16.2783C22.3428 19.2212 19.9428 21.614 17.0071 21.614ZM27.4643 7.73545C27.4643 8.79973 26.6071 9.64974 25.55 9.64974C24.4857 9.64974 23.6357 8.79259 23.6357 7.73545C23.6357 6.67831 24.4928 5.82116 25.55 5.82116C26.6071 5.82116 27.4643 6.67831 27.4643 7.73545ZM32.9 9.67831C32.7786 7.11402 32.1928 4.84259 30.3143 2.97116C28.4428 1.09973 26.1714 0.514021 23.6071 0.385449C20.9643 0.235449 13.0428 0.235449 10.4 0.385449C7.84284 0.506878 5.57142 1.09259 3.69284 2.96402C1.81427 4.83545 1.2357 7.10688 1.10713 9.67116C0.957129 12.314 0.957129 20.2354 1.10713 22.8783C1.22856 25.4426 1.81427 27.714 3.69284 29.5854C5.57142 31.4569 7.8357 32.0426 10.4 32.1712C13.0428 32.3212 20.9643 32.3212 23.6071 32.1712C26.1714 32.0497 28.4428 31.464 30.3143 29.5854C32.1857 27.714 32.7714 25.4426 32.9 22.8783C33.05 20.2354 33.05 12.3212 32.9 9.67831ZM29.4857 25.714C28.9286 27.114 27.85 28.1926 26.4428 28.7569C24.3357 29.5926 19.3357 29.3997 17.0071 29.3997C14.6786 29.3997 9.67142 29.5854 7.57142 28.7569C6.17142 28.1997 5.09284 27.1212 4.52856 25.714C3.69284 23.6069 3.8857 18.6069 3.8857 16.2783C3.8857 13.9497 3.69999 8.94259 4.52856 6.84259C5.0857 5.44259 6.16427 4.36402 7.57142 3.79973C9.67856 2.96402 14.6786 3.15688 17.0071 3.15688C19.3357 3.15688 24.3428 2.97116 26.4428 3.79973C27.8428 4.35688 28.9214 5.43545 29.4857 6.84259C30.3214 8.94973 30.1286 13.9497 30.1286 16.2783C30.1286 18.6069 30.3214 23.614 29.4857 25.714Z" fill="#9959D4"/>
</svg>
