<svg width="26" height="26" viewBox="0 0 26 26" fill="none" xmlns="http://www.w3.org/2000/svg">
<path d="M25.642 22.4787L20.5796 17.4163C20.3511 17.1878 20.0414 17.0608 19.7164 17.0608H18.8888C20.2902 15.2684 21.1229 13.014 21.1229 10.5615C21.1229 4.72727 16.3957 0 10.5615 0C4.72727 0 0 4.72727 0 10.5615C0 16.3957 4.72727 21.1229 10.5615 21.1229C13.014 21.1229 15.2684 20.2902 17.0608 18.8888V19.7164C17.0608 20.0414 17.1878 20.3511 17.4163 20.5796L22.4787 25.642C22.956 26.1193 23.7278 26.1193 24.2 25.642L25.6369 24.2051C26.1142 23.7278 26.1142 22.956 25.642 22.4787ZM10.5615 17.0608C6.97158 17.0608 4.0621 14.1564 4.0621 10.5615C4.0621 6.97158 6.96651 4.0621 10.5615 4.0621C14.1514 4.0621 17.0608 6.96651 17.0608 10.5615C17.0608 14.1514 14.1564 17.0608 10.5615 17.0608Z" fill="#a5a5a5"/>
</svg>
