<svg width="18" height="19" viewBox="0 0 18 19" fill="none" xmlns="http://www.w3.org/2000/svg">
<path d="M12.6852 11.5054L12.1675 12.1675L11.5054 12.6852C10.3493 13.5891 8.89595 14.1261 7.31303 14.1261C3.54943 14.1261 0.5 11.0766 0.5 7.31304C0.5 3.54943 3.54943 0.5 7.31303 0.5C11.0766 0.5 14.1261 3.54943 14.1261 7.31304C14.1261 8.89595 13.5891 10.3493 12.6852 11.5054ZM12.3134 13.0791V12.3134H13.0791H13.6522C13.7464 12.3134 13.8332 12.3499 13.8963 12.413L17.3998 15.9165C17.4 15.9167 17.4002 15.9169 17.4005 15.9172C17.5337 16.0526 17.5334 16.2714 17.3981 16.4067L16.4031 17.4016L16.4013 17.4035C16.271 17.5352 16.0546 17.5379 15.9184 17.4017L12.413 13.8963C12.3499 13.8332 12.3134 13.7464 12.3134 13.6522V13.0791ZM2.31271 7.31304C2.31271 10.0787 4.55142 12.3134 7.31303 12.3134C10.0787 12.3134 12.3134 10.0747 12.3134 7.31304C12.3134 4.54739 10.0747 2.31271 7.31303 2.31271C4.54739 2.31271 2.31271 4.55142 2.31271 7.31304Z" fill="#A5A5A5" stroke="#A5A5A5"/>
</svg>
