<svg width="21" height="18" viewBox="0 0 21 18" fill="none" xmlns="http://www.w3.org/2000/svg">
<path d="M0.749996 3.30612H20.25C20.6642 3.30612 21 2.97721 21 2.57143V0.734691C21 0.328913 20.6642 0 20.25 0H0.749996C0.335766 0 0 0.328913 0 0.734691V2.57143C0 2.97721 0.335766 3.30612 0.749996 3.30612ZM0.749996 10.6531H20.25C20.6642 10.6531 21 10.3242 21 9.91835V8.08165C21 7.67582 20.6642 7.34691 20.25 7.34691H0.749996C0.335766 7.34691 0 7.67582 0 8.08165V9.91835C0 10.3242 0.335766 10.6531 0.749996 10.6531ZM0.749996 18H20.25C20.6642 18 21 17.6711 21 17.2653V15.4286C21 15.0228 20.6642 14.6939 20.25 14.6939H0.749996C0.335766 14.6939 0 15.0228 0 15.4286V17.2653C0 17.6711 0.335766 18 0.749996 18Z" fill="#A5A5A5"/>
</svg>
