<svg width="30" height="26" viewBox="0 0 30 26" fill="none" xmlns="http://www.w3.org/2000/svg">
<path d="M1.06122 4.77551H28.6531C29.2392 4.77551 29.7143 4.30041 29.7143 3.71429V1.06122C29.7143 0.475097 29.2392 0 28.6531 0H1.06122C0.475097 0 0 0.475097 0 1.06122V3.71429C0 4.30041 0.475097 4.77551 1.06122 4.77551ZM1.06122 15.3878H28.6531C29.2392 15.3878 29.7143 14.9127 29.7143 14.3265V11.6735C29.7143 11.0873 29.2392 10.6122 28.6531 10.6122H1.06122C0.475097 10.6122 0 11.0873 0 11.6735V14.3265C0 14.9127 0.475097 15.3878 1.06122 15.3878ZM1.06122 26H28.6531C29.2392 26 29.7143 25.5249 29.7143 24.9388V22.2857C29.7143 21.6996 29.2392 21.2245 28.6531 21.2245H1.06122C0.475097 21.2245 0 21.6996 0 22.2857V24.9388C0 25.5249 0.475097 26 1.06122 26Z" fill="#a5a5a5"/>
</svg>
