<svg width="18" height="14" viewBox="0 0 18 14" fill="none" xmlns="http://www.w3.org/2000/svg">
<path d="M14.625 13.7128H11.6719C11.4398 13.7128 11.25 13.52 11.25 13.2843V11.8559C11.25 11.6202 11.4398 11.4273 11.6719 11.4273H14.625C15.2473 11.4273 15.75 10.9167 15.75 10.2846V3.4282C15.75 2.79613 15.2473 2.28547 14.625 2.28547H11.6719C11.4398 2.28547 11.25 2.09263 11.25 1.85694V0.428525C11.25 0.192836 11.4398 0 11.6719 0H14.625C16.4883 0 18 1.53555 18 3.4282V10.2846C18 12.1773 16.4883 13.7128 14.625 13.7128ZM12.9727 6.53501L7.06641 0.535656C6.53906 0 5.625 0.374959 5.625 1.14273V4.57093H0.84375C0.376172 4.57093 0 4.95303 0 5.42798V8.85618C0 9.33113 0.376172 9.71323 0.84375 9.71323H5.625V13.1414C5.625 13.9092 6.53906 14.2842 7.06641 13.7485L12.9727 7.74916C13.2996 7.41348 13.2996 6.87068 12.9727 6.53501Z" fill="#A5A5A5"/>
</svg>
