<svg width="26" height="20" viewBox="0 0 26 20" fill="none" xmlns="http://www.w3.org/2000/svg">
<path d="M21.125 19.5H16.8594C16.5242 19.5 16.25 19.2258 16.25 18.8906V16.8594C16.25 16.5242 16.5242 16.25 16.8594 16.25H21.125C22.0238 16.25 22.75 15.5238 22.75 14.625V4.875C22.75 3.97617 22.0238 3.25 21.125 3.25H16.8594C16.5242 3.25 16.25 2.97578 16.25 2.64062V0.609375C16.25 0.274219 16.5242 0 16.8594 0H21.125C23.8164 0 26 2.18359 26 4.875V14.625C26 17.3164 23.8164 19.5 21.125 19.5ZM18.7383 9.29297L10.207 0.761719C9.44531 0 8.125 0.533203 8.125 1.625V6.5H1.21875C0.543359 6.5 0 7.04336 0 7.71875V12.5938C0 13.2691 0.543359 13.8125 1.21875 13.8125H8.125V18.6875C8.125 19.7793 9.44531 20.3125 10.207 19.5508L18.7383 11.0195C19.2105 10.5422 19.2105 9.77031 18.7383 9.29297Z" fill="#E0E400"/>
</svg>
